<svg width="1944" height="387" viewBox="0 0 1944 387" fill="none" xmlns="http://www.w3.org/2000/svg">
<path d="M568.007 203.8C560.274 203.8 553.274 202.4 547.007 199.6C540.874 196.8 535.874 193 532.007 188.2C526.007 180.733 523.007 171.467 523.007 160.4C523.007 152.533 524.474 145.4 527.407 139C533.274 125.4 543.007 113.733 556.607 104C570.074 94.4 583.207 89.6 596.007 89.6C604.007 89.6 610.74 91.6 616.207 95.6C621.674 99.6 624.407 105.333 624.407 112.8C624.407 118 623.007 123.067 620.207 128C617.54 132.8 614.14 136 610.007 137.6C609.74 137.6 609.474 137.533 609.207 137.4C608.94 137.133 608.874 136.933 609.007 136.8C611.274 133.6 613.34 130.267 615.207 126.8C617.074 123.2 618.007 119.267 618.007 115C618.007 110.867 616.74 107.267 614.207 104.2C611.807 101 608.674 98.5333 604.807 96.8C601.074 94.9333 597.207 94 593.207 94C587.74 94 582.274 95.2667 576.807 97.8C571.34 100.333 565.874 103.667 560.407 107.8C548.674 117 540.674 128.8 536.407 143.2C534.407 149.6 533.407 155.8 533.407 161.8C533.407 173.267 537.34 182.533 545.207 189.6C548.407 192.4 551.807 194.533 555.407 196C559.007 197.6 562.874 198.4 567.007 198.4C580.474 198.4 595.14 193.467 611.007 183.6C627.007 173.867 643.94 159.067 661.807 139.2L643.607 139.6C637.874 139.467 635.007 138.267 635.007 136C635.007 133.333 637.807 130.533 643.407 127.6C645.674 126.8 647.207 126.4 648.007 126.4C649.207 126.4 649.94 127.333 650.207 129.2C650.474 130.933 651.074 131.933 652.007 132.2C654.274 132.333 656.674 132.467 659.207 132.6C661.74 132.6 664.474 132.6 667.407 132.6C679.94 117.267 691.274 104.467 701.407 94.2C711.674 83.9333 721.207 75.6667 730.007 69.4C738.94 63.1333 747.54 58.4667 755.807 55.4C757.007 54.8667 758.474 54.6 760.207 54.6C764.74 54.6 767.007 56 767.007 58.8C767.007 60 766.34 61.2667 765.007 62.6C747.14 81.5333 734.074 104.133 725.807 130.4C727.807 130.267 729.674 130.133 731.407 130C733.274 129.867 735.007 129.667 736.607 129.4C737.274 129.267 737.807 129.2 738.207 129.2C738.74 129.2 739.274 129.2 739.807 129.2C742.207 129.2 743.407 129.533 743.407 130.2C743.407 132.333 737.14 133.867 724.607 134.8C721.274 145.733 719.607 155.933 719.607 165.4C719.607 174.2 720.94 179.333 723.607 180.8C723.874 180.933 724.14 181 724.407 181C724.674 181.133 724.94 181.2 725.207 181.2C726.407 181.2 727.607 180.6 728.807 179.4C730.14 178.067 730.807 177.4 730.807 177.4C731.074 177.667 731.207 178.133 731.207 178.8C731.207 181.467 730.34 184 728.607 186.4C727.007 188.8 725.074 190 722.807 190C721.34 190 719.874 189.4 718.407 188.2C714.274 184.867 712.207 178.533 712.207 169.2C712.207 168.133 712.207 167.067 712.207 166C712.207 164.8 712.274 163.667 712.407 162.6C712.674 158.733 713.14 154.533 713.807 150C714.607 145.467 715.607 140.533 716.807 135.2L668.407 138.6C649.74 160.067 632.074 176.267 615.407 187.2C598.74 198.267 582.94 203.8 568.007 203.8ZM673.807 132.6C678.874 132.467 685.074 132.267 692.407 132C699.874 131.733 708.34 131.4 717.807 131C724.074 109.4 730.474 92.6 737.007 80.6C738.074 78.4667 739.207 76.4 740.407 74.4C741.74 72.4 743.074 70.4667 744.407 68.6C741.074 69.6667 737.34 71.5333 733.207 74.2C729.074 76.7333 725.14 79.4667 721.407 82.4C717.674 85.3333 714.607 87.8667 712.207 90C705.274 96.2667 698.674 103.067 692.407 110.4C686.274 117.6 680.074 125 673.807 132.6ZM787.535 182C784.602 182.267 781.802 181.533 779.135 179.8C776.468 177.933 775.135 175.867 775.135 173.6C775.135 169.467 779.068 161.533 786.935 149.8C795.602 136.867 799.935 129.4 799.935 127.4C799.935 126.2 799.335 125.533 798.135 125.4C794.268 125.667 788.268 129.533 780.135 137C768.535 147.8 757.668 162.467 747.535 181C747.268 181.267 746.535 181.4 745.335 181.4C739.602 181.4 737.002 180.6 737.535 179C739.002 175.133 741.535 169.333 745.135 161.6C748.868 153.867 753.668 144.133 759.535 132.4C763.535 124.533 767.602 120.6 771.735 120.6C773.068 120.6 773.935 120.933 774.335 121.6C774.602 122 771.802 127.733 765.935 138.8C763.135 144.133 760.935 148.4 759.335 151.6C757.735 154.667 756.602 156.667 755.935 157.6C758.202 155.333 760.868 152.533 763.935 149.2C767.135 145.867 770.802 142 774.935 137.6C781.468 130.267 788.668 124.8 796.535 121.2C798.402 120.4 800.535 120 802.935 120C808.402 120 811.135 122 811.135 126C811.135 128.533 809.868 131.533 807.335 135C792.935 155.133 785.735 168.667 785.735 175.6C785.735 177.067 786.202 178 787.135 178.4C789.268 179.333 794.535 177.133 802.935 171.8C812.802 165.4 821.202 157.467 828.135 148C829.602 146 830.935 145 832.135 145C832.535 145 832.735 145.133 832.735 145.4C832.735 146.067 832.135 147.333 830.935 149.2C825.068 158.4 816.935 166.533 806.535 173.6C797.202 179.733 790.868 182.533 787.535 182ZM865.121 182.2C862.454 182.2 859.988 181.333 857.721 179.6C855.588 177.867 854.321 176.2 853.921 174.6C853.521 172.733 855.988 166.067 861.321 154.6L856.721 161.2C854.721 164.133 852.721 166.733 850.721 169C848.721 171.267 846.854 173.267 845.121 175C840.054 179.8 835.788 181.8 832.321 181C824.321 179.133 820.321 174.6 820.321 167.4C820.321 161.667 823.054 154.333 828.521 145.4C830.254 142.733 832.454 140.067 835.121 137.4C837.788 134.733 840.854 132.133 844.321 129.6C853.254 123.067 861.854 119.8 870.121 119.8C875.188 119.8 879.988 121.133 884.521 123.8C885.988 124.867 886.721 126 886.721 127.2C886.721 128.133 886.454 128.6 885.921 128.6C885.788 128.6 885.654 128.533 885.521 128.4C882.721 125.333 878.988 123.8 874.321 123.8C868.854 123.8 862.921 125.867 856.521 130C850.121 134.133 844.388 139.667 839.321 146.6C832.121 156.6 828.521 164.733 828.521 171C828.521 174.6 829.788 176.867 832.321 177.8C835.521 179.133 842.321 173.2 852.721 160C856.988 154.8 860.521 150.133 863.321 146C866.254 141.867 868.588 138.333 870.321 135.4C871.121 133.933 872.588 133.2 874.721 133.2C878.721 133.2 880.721 134.4 880.721 136.8C880.721 137.2 880.654 137.467 880.521 137.6C868.921 156 863.121 168.467 863.121 175C863.121 176.6 863.588 177.467 864.521 177.6C867.321 178.4 871.988 176.333 878.521 171.4C886.388 165.533 893.788 157.733 900.721 148C902.188 146 903.521 145 904.721 145C905.121 145 905.321 145.133 905.321 145.4C905.321 146.067 904.721 147.333 903.521 149.2C900.721 153.6 897.588 157.733 894.121 161.6C890.788 165.467 887.054 169.067 882.921 172.4C877.054 177.333 872.254 180.4 868.521 181.6C867.588 182 866.454 182.2 865.121 182.2ZM893.391 188.2C892.858 188.2 892.591 188 892.591 187.6C892.591 185.867 897.125 182.667 906.191 178C908.458 176.933 910.525 175.867 912.391 174.8C914.258 173.6 915.858 172.533 917.191 171.6C925.325 165.6 929.391 160.4 929.391 156C929.391 152.667 926.125 151 919.591 151C904.391 150.733 896.791 147.4 896.791 141C896.791 138.2 897.991 135.533 900.391 133C903.191 129.8 907.858 126.733 914.391 123.8C921.458 120.6 927.925 119 933.791 119C938.991 119 942.925 120.267 945.591 122.8C946.791 124 947.391 125.467 947.391 127.2C947.391 129.067 946.791 130.733 945.591 132.2C944.391 133.667 943.058 134.4 941.591 134.4C938.925 134.4 937.458 132.6 937.191 129C937.191 126.467 936.791 125 935.991 124.6C935.191 124.2 933.058 124 929.591 124C925.191 124 920.258 125.467 914.791 128.4C908.258 131.733 905.191 135.733 905.591 140.4C905.858 143.067 910.925 144.4 920.791 144.4C934.258 144.4 940.991 147.667 940.991 154.2C940.991 161.267 935.191 168.333 923.591 175.4C916.258 179.933 907.325 183.933 896.791 187.4C895.325 187.933 894.191 188.2 893.391 188.2ZM971.463 183.4C961.197 181.133 956.063 176.467 956.063 169.4C956.063 167.4 956.397 165.067 957.063 162.4C957.73 159.6 958.797 156.533 960.263 153.2L977.263 115C975.263 115.267 973.063 115.533 970.663 115.8C968.263 116.067 965.597 116.333 962.663 116.6C962.13 116.6 961.863 116.133 961.863 115.2C961.863 113.333 962.197 112.267 962.863 112L979.663 109.6L992.663 83.2C993.863 80.8 997.597 79.6 1003.86 79.6C1006.8 79.6 1008.06 79.9333 1007.66 80.6C1004.73 85.2667 1001.73 90 998.663 94.8C995.73 99.4667 992.797 104.133 989.863 108.8C990.263 108.667 991.13 108.533 992.463 108.4C993.797 108.267 995.53 108.133 997.663 108C999.263 107.867 1000.8 107.8 1002.26 107.8C1003.73 107.667 1005.13 107.6 1006.46 107.6C1012.06 107.6 1014.73 107.867 1014.46 108.4C1013.53 109.333 1004.46 111.133 987.263 113.8C972.73 141.267 965.463 160.667 965.463 172C965.463 176.133 966.663 178.6 969.063 179.4C970.93 179.933 975.663 177.467 983.263 172C987.663 168.8 991.663 165.333 995.263 161.6C998.863 157.733 1002.13 153.667 1005.06 149.4C1006 148.067 1006.86 147.4 1007.66 147.4C1008.2 147.4 1008.46 147.667 1008.46 148.2C1008.46 148.733 1008.13 149.533 1007.46 150.6C1002.4 158.733 995.663 166.4 987.263 173.6C979.13 180.667 973.863 183.933 971.463 183.4ZM1012.19 181.6C1008.32 181.6 1004.92 180.667 1001.99 178.8C998.118 176.133 996.185 172.267 996.185 167.2C996.185 161.733 998.518 155.067 1003.19 147.2C1009.45 136.933 1018.65 127.933 1030.79 120.2C1033.85 118.2 1036.92 117.2 1039.99 117.2C1043.99 117.2 1046.85 118.467 1048.59 121C1049.65 122.467 1050.19 124.133 1050.19 126C1050.19 131.6 1045.65 137.733 1036.59 144.4C1033.92 146.267 1031.05 148 1027.99 149.6C1025.05 151.067 1021.85 152.133 1018.39 152.8L1009.79 154.6C1006.59 160.333 1004.99 165.133 1004.99 169C1004.99 174.333 1008.12 177 1014.39 177C1019.32 177 1025.32 174.933 1032.39 170.8C1041.85 165.333 1049.99 157.733 1056.79 148C1057.85 146.4 1058.85 145.6 1059.79 145.6C1060.19 145.6 1060.39 145.867 1060.39 146.4C1060.39 147.067 1059.92 148.067 1058.99 149.4C1046.05 168.867 1031.45 179.533 1015.19 181.4C1014.65 181.533 1014.12 181.6 1013.59 181.6C1013.19 181.6 1012.72 181.6 1012.19 181.6ZM1012.19 151.2C1015.92 151.2 1020.72 149.533 1026.59 146.2C1034.85 141.533 1040.65 135.533 1043.99 128.2C1044.92 126.333 1045.39 124.8 1045.39 123.6C1045.39 122.4 1044.92 121.8 1043.99 121.8C1042.25 121.8 1038.72 123.933 1033.39 128.2C1029.52 131.533 1025.72 135.133 1021.99 139C1018.39 142.733 1014.92 146.733 1011.59 151C1011.45 151.133 1011.65 151.2 1012.19 151.2ZM1090.98 109.8C1088.84 110.067 1086.51 109.8 1083.98 109C1081.58 108.2 1080.38 107.2 1080.38 106C1080.38 105.2 1080.64 104.4 1081.18 103.6C1081.71 102.667 1082.38 101.733 1083.18 100.8C1085.44 98 1086.78 96.2667 1087.18 95.6C1087.58 94.8 1088.31 94.4 1089.38 94.4C1092.44 94.4 1094.84 95.8667 1096.58 98.8C1096.71 98.9333 1096.78 99.2 1096.78 99.6C1096.78 100.8 1096.11 102.533 1094.78 104.8C1093.04 108 1091.78 109.667 1090.98 109.8ZM1060.78 182C1053.04 180.267 1049.18 177.2 1049.18 172.8C1049.18 170.667 1051.78 163.133 1056.98 150.2C1058.44 147.667 1060.38 144 1062.78 139.2C1065.31 134.267 1068.44 128.267 1072.18 121.2C1072.84 120.133 1074.31 119.6 1076.58 119.6C1078.58 119.6 1080.51 119.933 1082.38 120.6C1084.38 121.133 1085.18 121.667 1084.78 122.2C1067.18 147.133 1058.38 164.4 1058.38 174C1058.38 176.8 1059.31 178.2 1061.18 178.2C1064.78 178.2 1070.44 175.667 1078.18 170.6C1087.38 164.333 1095.11 156.8 1101.38 148C1102.71 145.867 1104.04 144.8 1105.38 144.8C1105.78 144.8 1105.98 145 1105.98 145.4C1105.98 146.067 1105.38 147.333 1104.18 149.2C1098.31 158.4 1090.18 166.533 1079.78 173.6C1070.44 180 1064.11 182.8 1060.78 182ZM1097.88 188.2C1097.35 188.2 1097.08 188 1097.08 187.6C1097.08 185.867 1101.62 182.667 1110.68 178C1112.95 176.933 1115.02 175.867 1116.88 174.8C1118.75 173.6 1120.35 172.533 1121.68 171.6C1129.82 165.6 1133.88 160.4 1133.88 156C1133.88 152.667 1130.62 151 1124.08 151C1108.88 150.733 1101.28 147.4 1101.28 141C1101.28 138.2 1102.48 135.533 1104.88 133C1107.68 129.8 1112.35 126.733 1118.88 123.8C1125.95 120.6 1132.42 119 1138.28 119C1143.48 119 1147.42 120.267 1150.08 122.8C1151.28 124 1151.88 125.467 1151.88 127.2C1151.88 129.067 1151.28 130.733 1150.08 132.2C1148.88 133.667 1147.55 134.4 1146.08 134.4C1143.42 134.4 1141.95 132.6 1141.68 129C1141.68 126.467 1141.28 125 1140.48 124.6C1139.68 124.2 1137.55 124 1134.08 124C1129.68 124 1124.75 125.467 1119.28 128.4C1112.75 131.733 1109.68 135.733 1110.08 140.4C1110.35 143.067 1115.42 144.4 1125.28 144.4C1138.75 144.4 1145.48 147.667 1145.48 154.2C1145.48 161.267 1139.68 168.333 1128.08 175.4C1120.75 179.933 1111.82 183.933 1101.28 187.4C1099.82 187.933 1098.68 188.2 1097.88 188.2ZM1203.36 182C1200.42 182.267 1197.62 181.533 1194.96 179.8C1192.29 177.933 1190.96 175.867 1190.96 173.6C1190.96 169.467 1194.89 161.533 1202.76 149.8C1211.42 136.733 1215.76 129.2 1215.76 127.2C1215.76 126 1215.09 125.4 1213.76 125.4C1210.29 125.4 1203.62 130.533 1193.76 140.8C1187.89 146.667 1182.36 153 1177.16 159.8C1172.09 166.467 1167.29 173.533 1162.76 181C1162.49 181.267 1161.76 181.4 1160.56 181.4C1154.69 181.4 1152.02 180.6 1152.56 179C1154.82 172.867 1157.69 166 1161.16 158.4C1164.62 150.8 1168.76 142.333 1173.56 133C1189.42 102.333 1200.22 84.8 1205.96 80.4C1207.56 79.2 1209.76 78.6 1212.56 78.6C1217.22 78.6 1219.56 79.5333 1219.56 81.4C1219.56 81.8 1219.16 82.3333 1218.36 83C1200.89 95.9333 1185.42 120.267 1171.96 156C1172.09 155.867 1172.76 155.267 1173.96 154.2C1175.29 153 1177.16 151.267 1179.56 149C1182.09 146.733 1184.22 144.667 1185.96 142.8C1187.82 140.8 1189.42 139.067 1190.76 137.6C1197.29 130.267 1204.49 124.8 1212.36 121.2C1214.22 120.4 1216.36 120 1218.76 120C1224.22 120 1226.96 122 1226.96 126C1226.96 128.533 1225.69 131.533 1223.16 135C1208.76 155.133 1201.56 168.667 1201.56 175.6C1201.56 177.067 1202.02 178 1202.96 178.4C1205.09 179.333 1210.36 177.133 1218.76 171.8C1228.62 165.4 1237.02 157.467 1243.96 148C1245.42 146 1246.76 145 1247.96 145C1248.36 145 1248.56 145.133 1248.56 145.4C1248.56 146.067 1247.96 147.333 1246.76 149.2C1240.89 158.4 1232.76 166.533 1222.36 173.6C1213.02 179.733 1206.69 182.533 1203.36 182ZM1282.5 182.2C1279.84 182.2 1277.37 181.333 1275.1 179.6C1272.97 177.867 1271.7 176.2 1271.3 174.6C1270.9 172.733 1273.37 166.067 1278.7 154.6L1274.1 161.2C1272.1 164.133 1270.1 166.733 1268.1 169C1266.1 171.267 1264.24 173.267 1262.5 175C1257.44 179.8 1253.17 181.8 1249.7 181C1241.7 179.133 1237.7 174.6 1237.7 167.4C1237.7 161.667 1240.44 154.333 1245.9 145.4C1247.64 142.733 1249.84 140.067 1252.5 137.4C1255.17 134.733 1258.24 132.133 1261.7 129.6C1270.64 123.067 1279.24 119.8 1287.5 119.8C1292.57 119.8 1297.37 121.133 1301.9 123.8C1303.37 124.867 1304.1 126 1304.1 127.2C1304.1 128.133 1303.84 128.6 1303.3 128.6C1303.17 128.6 1303.04 128.533 1302.9 128.4C1300.1 125.333 1296.37 123.8 1291.7 123.8C1286.24 123.8 1280.3 125.867 1273.9 130C1267.5 134.133 1261.77 139.667 1256.7 146.6C1249.5 156.6 1245.9 164.733 1245.9 171C1245.9 174.6 1247.17 176.867 1249.7 177.8C1252.9 179.133 1259.7 173.2 1270.1 160C1274.37 154.8 1277.9 150.133 1280.7 146C1283.64 141.867 1285.97 138.333 1287.7 135.4C1288.5 133.933 1289.97 133.2 1292.1 133.2C1296.1 133.2 1298.1 134.4 1298.1 136.8C1298.1 137.2 1298.04 137.467 1297.9 137.6C1286.3 156 1280.5 168.467 1280.5 175C1280.5 176.6 1280.97 177.467 1281.9 177.6C1284.7 178.4 1289.37 176.333 1295.9 171.4C1303.77 165.533 1311.17 157.733 1318.1 148C1319.57 146 1320.9 145 1322.1 145C1322.5 145 1322.7 145.133 1322.7 145.4C1322.7 146.067 1322.1 147.333 1320.9 149.2C1318.1 153.6 1314.97 157.733 1311.5 161.6C1308.17 165.467 1304.44 169.067 1300.3 172.4C1294.44 177.333 1289.64 180.4 1285.9 181.6C1284.97 182 1283.84 182.2 1282.5 182.2ZM1326.37 116.6C1325.97 116.6 1325.77 116.467 1325.77 116.2C1325.77 115.667 1326.57 114.6 1328.17 113C1329.91 111.4 1331.57 109.533 1333.17 107.4C1334.37 105.667 1335.37 103.867 1336.17 102C1337.11 100.133 1337.57 98.4667 1337.57 97C1337.57 95.5333 1337.24 94.4667 1336.57 93.8C1336.04 93.1333 1335.17 92.4667 1333.97 91.8C1333.04 91.1333 1332.11 90.4 1331.17 89.6C1330.37 88.6667 1329.97 87.4667 1329.97 86C1329.97 83.6 1331.71 81.3333 1335.17 79.2C1336.24 78.4 1337.31 78 1338.37 78C1340.64 78 1342.84 78.6667 1344.97 80C1347.11 81.3333 1348.17 83.6 1348.17 86.8C1348.17 89.2 1347.44 92.0667 1345.97 95.4C1344.51 98.7333 1342.64 102 1340.37 105.2C1338.11 108.4 1335.71 111.133 1333.17 113.4C1330.77 115.533 1328.51 116.6 1326.37 116.6ZM1371.32 188.2C1370.79 188.2 1370.52 188 1370.52 187.6C1370.52 185.867 1375.05 182.667 1384.12 178C1386.39 176.933 1388.45 175.867 1390.32 174.8C1392.19 173.6 1393.79 172.533 1395.12 171.6C1403.25 165.6 1407.32 160.4 1407.32 156C1407.32 152.667 1404.05 151 1397.52 151C1382.32 150.733 1374.72 147.4 1374.72 141C1374.72 138.2 1375.92 135.533 1378.32 133C1381.12 129.8 1385.79 126.733 1392.32 123.8C1399.39 120.6 1405.85 119 1411.72 119C1416.92 119 1420.85 120.267 1423.52 122.8C1424.72 124 1425.32 125.467 1425.32 127.2C1425.32 129.067 1424.72 130.733 1423.52 132.2C1422.32 133.667 1420.99 134.4 1419.52 134.4C1416.85 134.4 1415.39 132.6 1415.12 129C1415.12 126.467 1414.72 125 1413.92 124.6C1413.12 124.2 1410.99 124 1407.52 124C1403.12 124 1398.19 125.467 1392.72 128.4C1386.19 131.733 1383.12 135.733 1383.52 140.4C1383.79 143.067 1388.85 144.4 1398.72 144.4C1412.19 144.4 1418.92 147.667 1418.92 154.2C1418.92 161.267 1413.12 168.333 1401.52 175.4C1394.19 179.933 1385.25 183.933 1374.72 187.4C1373.25 187.933 1372.12 188.2 1371.32 188.2Z" fill="black"/>
<path d="M591.925 253C589.658 253 587.925 253.6 586.725 254.8C585.525 256 584.925 257.7 584.925 259.9V275.4L597.125 274.4V282.3H584.925V313.6C584.925 314.8 585.091 315.667 585.425 316.2C585.758 316.733 586.425 317.033 587.425 317.1L594.025 317.7V324H568.025V317.7L572.825 317C573.691 316.933 574.291 316.667 574.625 316.2C574.958 315.733 575.125 314.9 575.125 313.7V282.3H567.825V276.4L575.125 275.7V265.2C575.125 258.667 576.858 253.667 580.325 250.2C583.858 246.733 588.691 245 594.825 245C596.491 245 598.325 245.2 600.325 245.6C602.325 245.933 604.125 246.433 605.725 247.1L602.325 255.4C598.325 253.8 594.858 253 591.925 253ZM648.116 317.7V324H632.916L632.016 316.9C629.283 319.567 626.583 321.6 623.916 323C621.316 324.333 618.549 325 615.616 325C611.549 325 608.316 323.833 605.916 321.5C603.516 319.1 602.316 315.867 602.316 311.8C602.316 307.8 603.549 304.533 606.016 302C608.483 299.467 612.016 297.9 616.616 297.3L631.516 295.4V289.2C631.516 286.733 630.716 284.9 629.116 283.7C627.516 282.433 625.149 281.8 622.016 281.8C618.749 281.8 615.816 282.4 613.216 283.6L611.916 290.6H605.416L604.516 278.8C611.449 276.133 617.783 274.8 623.516 274.8C628.516 274.8 632.716 276.033 636.116 278.5C639.516 280.9 641.216 284.333 641.216 288.8V313.7C641.216 314.833 641.349 315.667 641.616 316.2C641.949 316.667 642.549 316.933 643.416 317L648.116 317.7ZM612.416 311C612.416 313 612.949 314.567 614.016 315.7C615.149 316.767 616.649 317.3 618.516 317.3C622.249 317.3 626.583 314.933 631.516 310.2V301.7L619.216 303.8C617.016 304.133 615.316 304.933 614.116 306.2C612.983 307.4 612.416 309 612.416 311ZM700.39 275.8V281.9L696.99 282.5C696.19 282.633 695.557 282.967 695.09 283.5C694.69 283.967 694.29 284.7 693.89 285.7L679.99 324H670.09L654.39 285.1C654.057 284.233 653.657 283.633 653.19 283.3C652.79 282.9 652.124 282.633 651.19 282.5L648.09 281.9V275.8H670.89V281.9L666.09 282.6C665.624 282.667 665.257 282.833 664.99 283.1C664.724 283.3 664.59 283.567 664.59 283.9C664.59 284.3 664.79 285.1 665.19 286.3L674.29 310.1L675.69 316.1L677.39 310L685.09 286.3C685.157 286.033 685.257 285.667 685.39 285.2C685.59 284.733 685.69 284.3 685.69 283.9C685.69 283.033 685.124 282.567 683.99 282.5L679.79 281.9V275.8H700.39ZM724.893 325C717.826 325 712.359 322.867 708.493 318.6C704.693 314.267 702.793 308.567 702.793 301.5C702.793 296.367 703.826 291.8 705.893 287.8C707.959 283.733 710.893 280.567 714.693 278.3C718.559 275.967 723.093 274.8 728.293 274.8C735.426 274.8 740.893 276.933 744.693 281.2C748.559 285.467 750.493 291.1 750.493 298.1C750.493 303.167 749.459 307.767 747.393 311.9C745.326 315.967 742.359 319.167 738.493 321.5C734.626 323.833 730.093 325 724.893 325ZM727.993 317.3C732.393 317.3 735.493 315.933 737.293 313.2C739.159 310.4 740.093 306.033 740.093 300.1C740.093 294.367 738.793 290 736.193 287C733.659 283.933 729.993 282.4 725.193 282.4C720.793 282.4 717.693 283.8 715.893 286.6C714.093 289.333 713.193 293.7 713.193 299.7C713.193 305.5 714.459 309.9 716.993 312.9C719.526 315.833 723.193 317.3 727.993 317.3ZM788.585 274.8C791.718 274.8 794.418 275.5 796.685 276.9L795.885 290.1H789.285L788.185 283.9C787.385 283.433 786.251 283.2 784.785 283.2C782.518 283.2 780.385 284.267 778.385 286.4C776.451 288.467 775.118 291 774.385 294V313.7C774.385 314.833 774.551 315.667 774.885 316.2C775.218 316.667 775.818 316.933 776.685 317L783.185 317.7V324H757.585V317.7L762.385 317C763.251 316.933 763.818 316.667 764.085 316.2C764.418 315.667 764.585 314.833 764.585 313.7V286C764.585 284.8 764.418 283.967 764.085 283.5C763.818 283.033 763.251 282.733 762.385 282.6L757.685 282V275.8H772.585L773.685 284.7C775.151 281.9 777.218 279.567 779.885 277.7C782.618 275.767 785.518 274.8 788.585 274.8ZM810.951 265.3C808.751 265.3 807.185 264.8 806.251 263.8C805.318 262.8 804.851 261.2 804.851 259C804.851 256.733 805.385 255.1 806.451 254.1C807.585 253.033 809.318 252.5 811.651 252.5C813.851 252.5 815.418 253.033 816.351 254.1C817.285 255.1 817.751 256.733 817.751 259C817.751 261.267 817.185 262.9 816.051 263.9C814.985 264.833 813.285 265.3 810.951 265.3ZM800.751 317.7L805.451 317C806.318 316.933 806.885 316.667 807.151 316.2C807.485 315.667 807.651 314.833 807.651 313.7V285.9C807.651 284.767 807.485 283.967 807.151 283.5C806.885 282.967 806.318 282.667 805.451 282.6L800.751 282V275.8H817.451V313.7C817.451 314.833 817.618 315.667 817.951 316.2C818.285 316.667 818.885 316.933 819.751 317L824.351 317.7V324H800.751V317.7ZM853.236 317.7C855.17 317.7 857.57 317.4 860.436 316.8L859.436 323C858.37 323.467 856.736 323.9 854.536 324.3C852.403 324.767 850.136 325 847.736 325C843.203 325 839.936 323.7 837.936 321.1C836.003 318.5 835.036 314.567 835.036 309.3V282.5H828.336V276.7L835.036 275.9V267.4L844.836 265.2V275.7L857.636 274.6V282.5H844.836V307.4C844.836 311.2 845.436 313.867 846.636 315.4C847.903 316.933 850.103 317.7 853.236 317.7ZM889.297 317.3C893.297 317.3 898.631 316.333 905.297 314.4L906.897 320.4C903.764 321.733 900.364 322.833 896.697 323.7C893.031 324.567 889.464 325 885.997 325C879.197 325 873.997 322.9 870.397 318.7C866.864 314.5 865.097 308.833 865.097 301.7C865.097 293.567 867.131 287.067 871.197 282.2C875.264 277.267 880.997 274.8 888.397 274.8C893.197 274.8 896.964 275.767 899.697 277.7C902.497 279.567 904.431 282.367 905.497 286.1C906.631 289.767 907.197 294.467 907.197 300.2L875.597 302.3C875.797 307.3 877.064 311.067 879.397 313.6C881.797 316.067 885.097 317.3 889.297 317.3ZM886.897 282.4C884.231 282.4 882.131 282.8 880.597 283.6C879.064 284.4 877.897 285.767 877.097 287.7C876.364 289.567 875.864 292.233 875.597 295.7L897.397 293.8C897.397 290.067 896.564 287.233 894.897 285.3C893.297 283.367 890.631 282.4 886.897 282.4ZM959.939 325C952.939 325 947.573 323.033 943.839 319.1C940.173 315.167 938.339 309.467 938.339 302C938.339 296.533 939.306 291.767 941.239 287.7C943.173 283.567 945.906 280.4 949.439 278.2C953.039 275.933 957.206 274.8 961.939 274.8C965.073 274.8 968.073 275.2 970.939 276C973.806 276.733 976.073 277.633 977.739 278.7L976.839 291.6H970.139L968.839 284.2C966.306 283 963.206 282.4 959.539 282.4C955.606 282.4 952.806 283.8 951.139 286.6C949.539 289.333 948.739 293.733 948.739 299.8C948.739 305.6 949.939 309.967 952.339 312.9C954.806 315.833 958.106 317.3 962.239 317.3C964.573 317.3 966.939 317.067 969.339 316.6C971.739 316.067 974.406 315.367 977.339 314.5L978.739 320.7C975.273 322.1 972.073 323.167 969.139 323.9C966.273 324.633 963.206 325 959.939 325ZM1030.15 317.7V324H1014.95L1014.05 316.9C1011.31 319.567 1008.61 321.6 1005.95 323C1003.35 324.333 1000.58 325 997.647 325C993.581 325 990.347 323.833 987.947 321.5C985.547 319.1 984.347 315.867 984.347 311.8C984.347 307.8 985.581 304.533 988.047 302C990.514 299.467 994.047 297.9 998.647 297.3L1013.55 295.4V289.2C1013.55 286.733 1012.75 284.9 1011.15 283.7C1009.55 282.433 1007.18 281.8 1004.05 281.8C1000.78 281.8 997.847 282.4 995.247 283.6L993.947 290.6H987.447L986.547 278.8C993.481 276.133 999.814 274.8 1005.55 274.8C1010.55 274.8 1014.75 276.033 1018.15 278.5C1021.55 280.9 1023.25 284.333 1023.25 288.8V313.7C1023.25 314.833 1023.38 315.667 1023.65 316.2C1023.98 316.667 1024.58 316.933 1025.45 317L1030.15 317.7ZM994.447 311C994.447 313 994.981 314.567 996.047 315.7C997.181 316.767 998.681 317.3 1000.55 317.3C1004.28 317.3 1008.61 314.933 1013.55 310.2V301.7L1001.25 303.8C999.047 304.133 997.347 304.933 996.147 306.2C995.014 307.4 994.447 309 994.447 311ZM1035.3 317.7L1040 317C1040.87 316.933 1041.43 316.667 1041.7 316.2C1042.03 315.667 1042.2 314.833 1042.2 313.7V256C1042.2 254.867 1042.03 254.067 1041.7 253.6C1041.43 253.133 1040.87 252.867 1040 252.8L1035.3 252.2V246H1052V313.7C1052 314.833 1052.17 315.667 1052.5 316.2C1052.83 316.667 1053.43 316.933 1054.3 317L1058.9 317.7V324H1035.3V317.7ZM1086.4 325C1079.4 325 1074.04 323.033 1070.3 319.1C1066.64 315.167 1064.8 309.467 1064.8 302C1064.8 296.533 1065.77 291.767 1067.7 287.7C1069.64 283.567 1072.37 280.4 1075.9 278.2C1079.5 275.933 1083.67 274.8 1088.4 274.8C1091.54 274.8 1094.54 275.2 1097.4 276C1100.27 276.733 1102.54 277.633 1104.2 278.7L1103.3 291.6H1096.6L1095.3 284.2C1092.77 283 1089.67 282.4 1086 282.4C1082.07 282.4 1079.27 283.8 1077.6 286.6C1076 289.333 1075.2 293.733 1075.2 299.8C1075.2 305.6 1076.4 309.967 1078.8 312.9C1081.27 315.833 1084.57 317.3 1088.7 317.3C1091.04 317.3 1093.4 317.067 1095.8 316.6C1098.2 316.067 1100.87 315.367 1103.8 314.5L1105.2 320.7C1101.74 322.1 1098.54 323.167 1095.6 323.9C1092.74 324.633 1089.67 325 1086.4 325ZM1163.51 317.7V324H1148.61L1147.91 316.9C1145.71 319.367 1143.18 321.333 1140.31 322.8C1137.45 324.267 1134.41 325 1131.21 325C1126.28 325 1122.41 323.733 1119.61 321.2C1116.81 318.667 1115.41 315.067 1115.41 310.4V286C1115.41 284.8 1115.25 283.967 1114.91 283.5C1114.65 283.033 1114.05 282.733 1113.11 282.6L1108.51 282V275.8H1125.21V308C1125.21 310.8 1125.95 312.933 1127.41 314.4C1128.88 315.8 1130.98 316.5 1133.71 316.5C1136.38 316.5 1138.81 315.9 1141.01 314.7C1143.28 313.5 1145.21 311.833 1146.81 309.7V286C1146.81 284.8 1146.65 283.967 1146.31 283.5C1145.98 282.967 1145.38 282.667 1144.51 282.6L1139.61 282V275.8H1156.61V313.7C1156.61 314.833 1156.75 315.667 1157.01 316.2C1157.35 316.667 1157.95 316.933 1158.81 317L1163.51 317.7ZM1168.7 317.7L1173.4 317C1174.27 316.933 1174.83 316.667 1175.1 316.2C1175.43 315.667 1175.6 314.833 1175.6 313.7V256C1175.6 254.867 1175.43 254.067 1175.1 253.6C1174.83 253.133 1174.27 252.867 1173.4 252.8L1168.7 252.2V246H1185.4V313.7C1185.4 314.833 1185.57 315.667 1185.9 316.2C1186.23 316.667 1186.83 316.933 1187.7 317L1192.3 317.7V324H1168.7V317.7ZM1244.5 317.7V324H1229.3L1228.4 316.9C1225.67 319.567 1222.97 321.6 1220.3 323C1217.7 324.333 1214.94 325 1212 325C1207.94 325 1204.7 323.833 1202.3 321.5C1199.9 319.1 1198.7 315.867 1198.7 311.8C1198.7 307.8 1199.94 304.533 1202.4 302C1204.87 299.467 1208.4 297.9 1213 297.3L1227.9 295.4V289.2C1227.9 286.733 1227.1 284.9 1225.5 283.7C1223.9 282.433 1221.54 281.8 1218.4 281.8C1215.14 281.8 1212.2 282.4 1209.6 283.6L1208.3 290.6H1201.8L1200.9 278.8C1207.84 276.133 1214.17 274.8 1219.9 274.8C1224.9 274.8 1229.1 276.033 1232.5 278.5C1235.9 280.9 1237.6 284.333 1237.6 288.8V313.7C1237.6 314.833 1237.74 315.667 1238 316.2C1238.34 316.667 1238.94 316.933 1239.8 317L1244.5 317.7ZM1208.8 311C1208.8 313 1209.34 314.567 1210.4 315.7C1211.54 316.767 1213.04 317.3 1214.9 317.3C1218.64 317.3 1222.97 314.933 1227.9 310.2V301.7L1215.6 303.8C1213.4 304.133 1211.7 304.933 1210.5 306.2C1209.37 307.4 1208.8 309 1208.8 311ZM1273.26 317.7C1275.19 317.7 1277.59 317.4 1280.46 316.8L1279.46 323C1278.39 323.467 1276.76 323.9 1274.56 324.3C1272.42 324.767 1270.16 325 1267.76 325C1263.22 325 1259.96 323.7 1257.96 321.1C1256.02 318.5 1255.06 314.567 1255.06 309.3V282.5H1248.36V276.7L1255.06 275.9V267.4L1264.86 265.2V275.7L1277.66 274.6V282.5H1264.86V307.4C1264.86 311.2 1265.46 313.867 1266.66 315.4C1267.92 316.933 1270.12 317.7 1273.26 317.7ZM1307.22 325C1300.15 325 1294.68 322.867 1290.82 318.6C1287.02 314.267 1285.12 308.567 1285.12 301.5C1285.12 296.367 1286.15 291.8 1288.22 287.8C1290.28 283.733 1293.22 280.567 1297.02 278.3C1300.88 275.967 1305.42 274.8 1310.62 274.8C1317.75 274.8 1323.22 276.933 1327.02 281.2C1330.88 285.467 1332.82 291.1 1332.82 298.1C1332.82 303.167 1331.78 307.767 1329.72 311.9C1327.65 315.967 1324.68 319.167 1320.82 321.5C1316.95 323.833 1312.42 325 1307.22 325ZM1310.32 317.3C1314.72 317.3 1317.82 315.933 1319.62 313.2C1321.48 310.4 1322.42 306.033 1322.42 300.1C1322.42 294.367 1321.12 290 1318.52 287C1315.98 283.933 1312.32 282.4 1307.52 282.4C1303.12 282.4 1300.02 283.8 1298.22 286.6C1296.42 289.333 1295.52 293.7 1295.52 299.7C1295.52 305.5 1296.78 309.9 1299.32 312.9C1301.85 315.833 1305.52 317.3 1310.32 317.3ZM1370.91 274.8C1374.04 274.8 1376.74 275.5 1379.01 276.9L1378.21 290.1H1371.61L1370.51 283.9C1369.71 283.433 1368.58 283.2 1367.11 283.2C1364.84 283.2 1362.71 284.267 1360.71 286.4C1358.78 288.467 1357.44 291 1356.71 294V313.7C1356.71 314.833 1356.88 315.667 1357.21 316.2C1357.54 316.667 1358.14 316.933 1359.01 317L1365.51 317.7V324H1339.91V317.7L1344.71 317C1345.58 316.933 1346.14 316.667 1346.41 316.2C1346.74 315.667 1346.91 314.833 1346.91 313.7V286C1346.91 284.8 1346.74 283.967 1346.41 283.5C1346.14 283.033 1345.58 282.733 1344.71 282.6L1340.01 282V275.8H1354.91L1356.01 284.7C1357.48 281.9 1359.54 279.567 1362.21 277.7C1364.94 275.767 1367.84 274.8 1370.91 274.8Z" fill="black"/>
</svg>
